PathFileType	4	(X/Y/Z)	C:/Users/beibeiliu/ov580/test_trc/User3\sequence.20_training_dense_right.trc
DataRate	CameraRate	NumFrames	NumMarkers	Units	OrigDataRate	OrigDataStartFrame	OrigNumFrames
120	120	10	19	mm	120	174	346
Frame#	Time	ThumbCMC			ThumbMCP			ThumbIP			ThumbTip			IndexMCP			IndexPIP			IndexTip			MiddleMCP			MiddlePIP			MiddleTip			RingMCP			RingPIP			RingTip			PinkyMCP			PinkyPIP			PinkyTip			BackHand1			BackHand2			BackHand3	
		X0	Y0	Z0	X1	Y1	Z1	X2	Y2	Z2	X3	Y3	Z3	X4	Y4	Z4	X5	Y5	Z5	X6	Y6	Z6	X7	Y7	Z7	X8	Y8	Z8	X9	Y9	Z9	X10	Y10	Z10	X11	Y11	Z11	X12	Y12	Z12	X13	Y13	Z13	X14	Y14	Z14	X15	Y15	Z15	X16	Y16	Z16	X17	Y17	Z17	X18	Y18	Z18	
173	1.44167	137.561	20.5502	-6.77921	108.448	33.6131	-18.2611	76.5271	32.037	-29.6543	59.3412	6.78672	-23.8623	90.9963	0.758253	-67.4191	62.5296	11.57	-59.4963	74.9146	19.5916	-27.8363	81.0804	-19.0257	-61.756	54.8752	-2.00951	-50.2884	78.6496	2.46858	-17.7965	78.9407	-31.1695	-44.34	55.9044	-16.0946	-31.357	79.5048	-7.18325	-6.97935	80.4116	-45.6471	-26.5255	60.4995	-27.465	-19.4552	82.1924	-17.3642	3.13237	131.087	-39.4835	-20.2015	152.22	-41.1963	0.987786	151.357	-8.96262	-23.5017	
174	1.45	147.616	21.7194	-8.14325	118.179	36.2896	-24.584	91.8241	38.45	-33.0976	67.5183	18.7483	-30.5436	100.533	2.70524	-71.2574	73.8055	18.5665	-67.495	84.484	26.7555	-34.2709	89.2348	-15.6602	-64.8651	63.2181	2.04734	-59.1739	83.1048	12.6002	-23.9808	83.5497	-26.9271	-48.9463	59.6869	-8.19851	-34.8982	80.9728	-1.80401	-10.2153	82.604	-37.7994	-31.7751	63.3111	-20.3004	-25.1087	84.3027	-11.1082	-2.73296	133.47	-40.8966	-23.5646	150.686	-43.914	2.7601	155.882	-13.0126	-21.4943	
175	1.45833	155.156	19.1683	-12.127	130.659	37.0121	-30.1222	103.572	42.0804	-43.7635	83.6649	25.0906	-37.8197	112.437	1.02525	-74.3991	84.9401	19.1421	-76.9363	95.1058	31.9098	-44.9656	99.1526	-11.6287	-71.51	71.849	10.2004	-64.9713	86.2205	12.411	-31.4453	87.7149	-23.5113	-55.3772	67.0042	-3.20909	-45.8418	82.5934	4.34167	-20.8703	84.2884	-33.7474	-39.2596	69.9111	-12.5923	-33.0559	83.6076	-6.40481	-6.60297	135.292	-43.9681	-22.3102	152.312	-42.2958	1.73082	160.29	-18.629	-25.0165	
176	1.46667	163.237	14.6636	-14.7806	143.133	33.7089	-36.0266	115.855	40.9099	-52.8565	94.4751	24.1917	-46.4999	120.379	-3.37413	-80.3132	98.1855	18.9919	-86.9954	102.989	33.1116	-57.9034	104.582	-14.1184	-78.4726	82.3056	9.1428	-75.2382	94.7582	14.2239	-39.0462	96.4878	-20.9655	-63.8047	75.8626	-2.17486	-59.0838	91.3084	6.6948	-26.6351	91.6052	-32.2877	-43.7035	72.6198	-13.3644	-39.4473	86.7129	-5.14812	-14.116	134.759	-43.3472	-27.9722	153.994	-46.5227	0.295618	163.859	-20.6352	-25.7219	
177	1.475	171.902	11.8252	-17.2599	153.043	32.0824	-40.437	125.832	32.4657	-58.0415	99.9053	25.8315	-57.4493	133.352	-5.79066	-87.4605	107.342	13.426	-92.19	112.426	29.1457	-65.4989	115.93	-20.017	-80.7233	93.8875	7.86177	-84.5175	105.827	14.5173	-45.9377	101.829	-27.566	-65.6704	81.8579	-4.85508	-64.9361	97.5776	7.08496	-36.016	96.0789	-34.9578	-46.2278	82.5167	-12.3347	-50.8013	97.7854	-3.08781	-24.0683	142.751	-46.3574	-26.5999	155.395	-50.7046	-0.306097	172.244	-26.2348	-26.8509	
178	1.48333	177.084	4.85769	-19.098	158.933	25.0812	-46.9435	135.75	32.469	-65.7513	108.979	19.8259	-64.9784	145.391	-13.2068	-88.256	120.151	5.03842	-101.463	123.295	24.3239	-71.852	126.422	-25.3777	-86.0786	104.787	-2.11999	-94.8278	114.816	9.44721	-54.368	112.385	-30.5572	-74.4285	90.5998	-11.6489	-72.6843	103.768	1.44677	-44.4553	107.347	-37.8922	-51.8896	91.1158	-16.6319	-58.9486	99.5257	-5.49094	-31.4964	146.571	-48.7473	-30.4018	157.53	-54.5647	-3.86736	174.051	-31.7196	-28.1043	
179	1.49167	183.767	-0.974646	-25.1408	168.518	16.8822	-48.6068	147.338	22.6407	-66.5499	121.533	12.1432	-68.8544	151.118	-24.9207	-94.301	134.537	-1.39423	-107.258	131.403	13.4932	-80.2704	137.734	-35.5913	-90.2647	114.437	-14.4797	-101.08	120.314	1.96645	-65.0731	120.696	-42.1765	-77.4387	103.805	-16.9007	-83.0617	115.154	-4.48359	-53.4226	114.399	-43.5592	-61.0283	100.465	-24.6081	-67.6223	107.541	-10.3216	-39.1325	151.165	-56.5384	-30.7631	161.13	-58.7957	-2.41433	182.487	-38.7935	-28.9219	
180	1.5	189.079	-7.9934	-24.4462	178.187	12.2564	-50.2675	155.169	14.1677	-73.8406	128.362	6.58141	-77.9883	165.028	-34.135	-91.7324	143.946	-13.1594	-109.755	147.19	7.31489	-83.7804	147.518	-44.3689	-94.8259	129.227	-21.814	-107.028	131.14	-5.51019	-71.0518	136.248	-48.8672	-81.4865	113.449	-26.4563	-89.0683	121.557	-11.1823	-63.5626	124.247	-53.5047	-60.7729	109.117	-33.7646	-75.4218	112.332	-17.0417	-49.3328	156.068	-64.8405	-34.9918	166.943	-64.8825	-1.47108	189.358	-46.2874	-27.6142	
181	1.50833	194.91	-11.541	-26.8704	184.418	5.20348	-55.1451	165.888	8.89335	-76.8563	140.08	-2.70328	-81.7134	178.52	-41.4004	-94.6511	158.96	-21.6896	-112.898	158.679	-2.98309	-88.3196	159.55	-54.769	-93.6888	141.154	-32.6053	-111.216	144.626	-10.4623	-76.8978	144.066	-60.5271	-81.9996	125.537	-38.5839	-95.7262	133.45	-17.2186	-72.6785	131.838	-62.3137	-67.1906	121.421	-42.286	-81.4865	120.165	-21.8933	-62.3241	168.178	-66.5193	-32.3652	172.524	-66.8055	-4.64889	193.657	-49.0026	-25.6072	
182	1.51667	202.572	-12.3908	-25.3485	192.026	1.67553	-52.9601	174.025	2.31097	-85.1072	148.284	-11.0813	-88.0269	191.552	-47.8925	-97.187	173.221	-29.5879	-115.131	169.215	-9.98359	-91.0463	175.298	-59.7407	-93.847	156.328	-42.9238	-114.657	156.995	-15.6523	-80.6201	160.648	-64.6237	-83.3226	140.138	-45.5721	-102.24	141.339	-24.8524	-75.1678	144.936	-68.5983	-70.5715	135.696	-50.0026	-87.4031	131.194	-27.6477	-71.3329	174.739	-71.8009	-35.2961	173.7	-68.6776	-1.47325	203.535	-52.6048	-24.2616	
